<mxfile host="app.diagrams.net" agent="Mozilla/5.0 (Windows NT 10.0; Win64; x64) AppleWebKit/537.36 (KHTML, like Gecko) Chrome/135.0.0.0 Safari/537.36" version="26.2.13">
  <diagram name="Page-1" id="t4-3bwFula19rmjHboUS">
    <mxGraphModel dx="1556" dy="855" grid="1" gridSize="10" guides="1" tooltips="1" connect="1" arrows="1" fold="1" page="1" pageScale="1" pageWidth="850" pageHeight="1100" math="0" shadow="0">
      <root>
        <mxCell id="0" />
        <mxCell id="1" parent="0" />
        <mxCell id="ttFGOVi7eyyZt4BaqJIr-1" value="Grade" style="swimlane;fontStyle=0;align=center;verticalAlign=top;childLayout=stackLayout;horizontal=1;startSize=26;horizontalStack=0;resizeParent=1;resizeLast=0;collapsible=1;marginBottom=0;rounded=0;shadow=0;strokeWidth=1;" vertex="1" parent="1">
          <mxGeometry x="490" y="290" width="230" height="190" as="geometry">
            <mxRectangle x="230" y="140" width="160" height="26" as="alternateBounds" />
          </mxGeometry>
        </mxCell>
        <mxCell id="ttFGOVi7eyyZt4BaqJIr-2" value="- assignment : string&#xa;- value : intÂ &#xa;&#xa;" style="text;align=left;verticalAlign=top;spacingLeft=4;spacingRight=4;overflow=hidden;rotatable=0;points=[[0,0.5],[1,0.5]];portConstraint=eastwest;" vertex="1" parent="ttFGOVi7eyyZt4BaqJIr-1">
          <mxGeometry y="26" width="230" height="64" as="geometry" />
        </mxCell>
        <mxCell id="ttFGOVi7eyyZt4BaqJIr-3" value="" style="line;html=1;strokeWidth=1;align=left;verticalAlign=middle;spacingTop=-1;spacingLeft=3;spacingRight=3;rotatable=0;labelPosition=right;points=[];portConstraint=eastwest;" vertex="1" parent="ttFGOVi7eyyZt4BaqJIr-1">
          <mxGeometry y="90" width="230" height="8" as="geometry" />
        </mxCell>
        <mxCell id="ttFGOVi7eyyZt4BaqJIr-4" value="+ get_student_id() : int" style="text;align=left;verticalAlign=top;spacingLeft=4;spacingRight=4;overflow=hidden;rotatable=0;points=[[0,0.5],[1,0.5]];portConstraint=eastwest;" vertex="1" parent="ttFGOVi7eyyZt4BaqJIr-1">
          <mxGeometry y="98" width="230" height="22" as="geometry" />
        </mxCell>
        <mxCell id="ttFGOVi7eyyZt4BaqJIr-5" value="+ get_course_id() : int" style="text;align=left;verticalAlign=top;spacingLeft=4;spacingRight=4;overflow=hidden;rotatable=0;points=[[0,0.5],[1,0.5]];portConstraint=eastwest;" vertex="1" parent="ttFGOVi7eyyZt4BaqJIr-1">
          <mxGeometry y="120" width="230" height="20" as="geometry" />
        </mxCell>
        <mxCell id="ttFGOVi7eyyZt4BaqJIr-6" value="+ get_assignment(): string" style="text;align=left;verticalAlign=top;spacingLeft=4;spacingRight=4;overflow=hidden;rotatable=0;points=[[0,0.5],[1,0.5]];portConstraint=eastwest;" vertex="1" parent="ttFGOVi7eyyZt4BaqJIr-1">
          <mxGeometry y="140" width="230" height="20" as="geometry" />
        </mxCell>
        <mxCell id="ttFGOVi7eyyZt4BaqJIr-7" value="+ get_value : int" style="text;align=left;verticalAlign=top;spacingLeft=4;spacingRight=4;overflow=hidden;rotatable=0;points=[[0,0.5],[1,0.5]];portConstraint=eastwest;" vertex="1" parent="ttFGOVi7eyyZt4BaqJIr-1">
          <mxGeometry y="160" width="230" height="20" as="geometry" />
        </mxCell>
        <mxCell id="ttFGOVi7eyyZt4BaqJIr-8" value="Student" style="swimlane;fontStyle=0;align=center;verticalAlign=top;childLayout=stackLayout;horizontal=1;startSize=26;horizontalStack=0;resizeParent=1;resizeLast=0;collapsible=1;marginBottom=0;rounded=0;shadow=0;strokeWidth=1;" vertex="1" parent="1">
          <mxGeometry x="130" y="340" width="160" height="90" as="geometry">
            <mxRectangle x="120" y="360" width="160" height="26" as="alternateBounds" />
          </mxGeometry>
        </mxCell>
        <mxCell id="ttFGOVi7eyyZt4BaqJIr-9" value="- id : int" style="text;align=left;verticalAlign=top;spacingLeft=4;spacingRight=4;overflow=hidden;rotatable=0;points=[[0,0.5],[1,0.5]];portConstraint=eastwest;" vertex="1" parent="ttFGOVi7eyyZt4BaqJIr-8">
          <mxGeometry y="26" width="160" height="22" as="geometry" />
        </mxCell>
        <mxCell id="ttFGOVi7eyyZt4BaqJIr-10" value="" style="line;html=1;strokeWidth=1;align=left;verticalAlign=middle;spacingTop=-1;spacingLeft=3;spacingRight=3;rotatable=0;labelPosition=right;points=[];portConstraint=eastwest;" vertex="1" parent="ttFGOVi7eyyZt4BaqJIr-8">
          <mxGeometry y="48" width="160" height="8" as="geometry" />
        </mxCell>
        <mxCell id="ttFGOVi7eyyZt4BaqJIr-11" value="+ get_id() : int" style="text;align=left;verticalAlign=top;spacingLeft=4;spacingRight=4;overflow=hidden;rotatable=0;points=[[0,0.5],[1,0.5]];portConstraint=eastwest;" vertex="1" parent="ttFGOVi7eyyZt4BaqJIr-8">
          <mxGeometry y="56" width="160" height="24" as="geometry" />
        </mxCell>
        <mxCell id="ttFGOVi7eyyZt4BaqJIr-13" style="edgeStyle=orthogonalEdgeStyle;rounded=0;orthogonalLoop=1;jettySize=auto;html=1;exitX=1;exitY=0.5;exitDx=0;exitDy=0;fontSize=12;startSize=8;endSize=8;endArrow=none;startFill=0;" edge="1" parent="1">
          <mxGeometry relative="1" as="geometry">
            <mxPoint x="290" y="383" as="sourcePoint" />
            <mxPoint x="490" y="386" as="targetPoint" />
            <Array as="points">
              <mxPoint x="290" y="387" />
              <mxPoint x="435" y="387" />
              <mxPoint x="435" y="386" />
            </Array>
          </mxGeometry>
        </mxCell>
        <mxCell id="ttFGOVi7eyyZt4BaqJIr-14" value="1" style="text;html=1;align=center;verticalAlign=middle;resizable=0;points=[];autosize=1;strokeColor=none;fillColor=none;fontSize=16;" vertex="1" parent="1">
          <mxGeometry x="283" y="385" width="30" height="30" as="geometry" />
        </mxCell>
        <mxCell id="ttFGOVi7eyyZt4BaqJIr-15" value="0..*" style="text;html=1;align=center;verticalAlign=middle;resizable=0;points=[];autosize=1;strokeColor=none;fillColor=none;fontSize=16;" vertex="1" parent="1">
          <mxGeometry x="450" y="355" width="50" height="30" as="geometry" />
        </mxCell>
        <mxCell id="ttFGOVi7eyyZt4BaqJIr-16" value="student_id" style="text;html=1;align=center;verticalAlign=middle;resizable=0;points=[];autosize=1;strokeColor=none;fillColor=none;fontSize=16;" vertex="1" parent="1">
          <mxGeometry x="283" y="355" width="100" height="30" as="geometry" />
        </mxCell>
      </root>
    </mxGraphModel>
  </diagram>
</mxfile>
